<?xml version="1.0" encoding="UTF-8"?>
<svg xmlns="http://www.w3.org/2000/svg" width="1600" height="900" viewBox="0 0 1600 900">
  <defs>
    <linearGradient id="g1" x1="0" y1="0" x2="1" y2="1">
      <stop offset="0%" stop-color="#151515"/>
      <stop offset="100%" stop-color="#0a0a0a"/>
    </linearGradient>
    <radialGradient id="gold" cx="50%" cy="40%" r="60%">
      <stop offset="0%" stop-color="rgba(255,200,0,0.18)"/>
      <stop offset="60%" stop-color="rgba(255,184,0,0.08)"/>
      <stop offset="100%" stop-color="rgba(0,0,0,0)"/>
    </radialGradient>
    <linearGradient id="lines" x1="0" y1="0" x2="1" y2="1">
      <stop offset="0%" stop-color="rgba(255,214,82,0.22)"/>
      <stop offset="100%" stop-color="rgba(255,214,82,0)"/>
    </linearGradient>
    <filter id="blur"><feGaussianBlur stdDeviation="8"/></filter>
  </defs>
  <rect width="1600" height="900" fill="url(#g1)"/>
  <g filter="url(#blur)">
    <circle cx="800" cy="260" r="380" fill="url(#gold)"/>
    <circle cx="1400" cy="180" r="280" fill="url(#gold)"/>
    <circle cx="220" cy="320" r="260" fill="url(#gold)"/>
  </g>
  <g transform="rotate(-24 800 450)" opacity="0.55">
    <rect x="-200" y="-200" width="2000" height="2" fill="url(#lines)"/>
    <rect x="-200" y="-120" width="2000" height="2" fill="url(#lines)"/>
    <rect x="-200" y="-40" width="2000" height="2" fill="url(#lines)"/>
    <rect x="-200" y="40" width="2000" height="2" fill="url(#lines)"/>
    <rect x="-200" y="120" width="2000" height="2" fill="url(#lines)"/>
    <rect x="-200" y="200" width="2000" height="2" fill="url(#lines)"/>
    <rect x="-200" y="280" width="2000" height="2" fill="url(#lines)"/>
    <rect x="-200" y="360" width="2000" height="2" fill="url(#lines)"/>
    <rect x="-200" y="440" width="2000" height="2" fill="url(#lines)"/>
    <rect x="-200" y="520" width="2000" height="2" fill="url(#lines)"/>
  </g>
  <g fill="#ffd34d" opacity="0.12">
    <path d="M620 470 l-120 -80 l120 -80" stroke="#ffd34d" stroke-width="8" fill="none" stroke-linecap="round" stroke-linejoin="round"/>
    <rect x="740" y="300" width="120" height="160" rx="16" ry="16" stroke="#ffd34d" stroke-width="8" fill="none"/>
    <path d="M980 310 l120 80 l-120 80" stroke="#ffd34d" stroke-width="8" fill="none" stroke-linecap="round" stroke-linejoin="round"/>
  </g>
</svg>

